<svg width="700" height="350" viewBox="0 0 700 350" fill="none" xmlns="http://www.w3.org/2000/svg">
<path d="M666.784 249.995C662.666 249.995 659.37 246.441 659.37 242.064V154L639.333 157.008V241.515C639.333 253.823 648.941 263.667 660.744 263.667H672V249.993H666.784V249.995Z" fill="white"/>
<path d="M438.667 263.667H457.333V182L438.667 185.181V263.667Z" fill="white"/>
<path d="M471.333 196.896V202.679V263.667H489.947V210.83V204.521C489.947 194.532 511.369 196.632 511.369 196.632L518 181.648C488.416 172.713 471.333 196.896 471.333 196.896Z" fill="white"/>
<path d="M545.94 242.337V193.657H557.155V178.34H545.94V154L527.333 157.008V241.515C527.333 253.823 536.255 263.667 547.214 263.667H557.667V249.993H553.077C548.999 249.995 545.94 246.44 545.94 242.337Z" fill="white"/>
<path d="M447.995 147C441.516 147 436.333 152.706 436.333 159.833C436.333 166.965 441.516 172.667 447.995 172.667C454.475 172.667 459.658 166.963 459.658 159.833C459.918 152.706 454.475 147 447.995 147Z" fill="white"/>
<path d="M595.81 248.61C582.531 243.591 583.36 224.571 583.36 224.571H631.778C631.778 200.535 625.691 179.667 601.345 179.667C576.999 179.667 562.333 196.837 562.333 220.874C562.333 244.913 577.828 263.667 602.176 263.667C611.858 263.667 625.139 260.498 632.333 255.48L625.417 244.121C625.691 243.854 609.089 253.363 595.81 248.61ZM598.577 194.458C610.196 194.458 612.41 210.043 612.41 210.043H611.856H584.741C584.465 210.043 586.955 194.458 598.577 194.458Z" fill="white"/>
<path d="M398.22 179.667C398.22 179.667 390.022 179.667 381.825 181.278C374.156 182.892 366.222 188.261 366.222 188.261L372.303 201.148C372.303 201.148 380.238 193.63 392.666 193.63C409.061 193.63 406.683 210.277 406.683 210.277C374.683 203.565 358.817 220.212 359.346 237.663C359.61 245.45 360.668 253.505 369.395 259.411C397.426 278.206 424.662 250.818 424.662 250.818V205.174C424.929 191.75 413.03 179.667 398.22 179.667ZM406.683 248.137C406.683 248.137 393.989 254.044 385.792 249.212C377.594 244.377 378.652 230.686 386.321 226.656C393.989 222.358 406.683 225.044 406.683 225.044V248.137Z" fill="white"/>
<path d="M87.1556 90.8553C-1.81472 171.773 30.2684 198.837 51.5675 209.12C72.8648 219.404 101.172 205.332 136.76 177.455C172.082 149.581 254.309 95.7264 273.719 122.519C293.129 149.312 293.398 202.355 210.361 272.446C127.324 342.54 110.071 301.404 151.049 269.471C192.029 237.266 184.478 218.051 165.068 215.344C144.847 212.369 127.322 217.238 108.99 250.526C108.99 250.526 81.2206 304.11 116.809 317.913C141.342 327.384 214.407 297.886 267.786 244.033C307.15 204.251 335.997 156.62 323.865 93.0211C308.499 9.66628 176.124 9.93607 87.1556 90.8553Z" fill="white"/>
</svg>
