<svg width="700" height="350" viewBox="0 0 700 350" fill="none" xmlns="http://www.w3.org/2000/svg">
<path d="M650.099 273.415H611.065V289.333H648.643C664.548 289.333 674.666 279.2 674.666 264.736C674.666 250.272 665.99 243.03 651.537 243.03H634.183C629.854 243.03 626.956 240.135 626.956 235.794C626.956 231.439 629.854 228.559 634.183 228.559H667.45L674.669 212.633H635.642C619.736 212.633 609.623 222.76 609.623 235.794C609.623 250.265 618.288 257.497 632.744 257.497H650.099C654.431 257.497 657.322 260.388 657.322 264.74C658.76 270.51 655.869 273.415 650.099 273.415ZM579.264 273.415H540.237V289.333H577.822C593.71 289.333 603.838 279.2 603.838 264.736C603.838 250.272 595.166 243.03 580.716 243.03H563.362C559.029 243.03 556.142 240.135 556.142 235.794C556.142 231.439 559.029 228.559 563.362 228.559H596.608L603.831 212.633H564.8C548.912 212.633 538.788 222.76 538.788 235.794C538.788 250.265 547.453 257.497 561.906 257.497H579.26C583.596 257.497 586.487 260.388 586.487 264.74C587.946 270.51 583.596 273.415 579.264 273.415ZM528.678 227.094V211.183H467.963V287.875H528.678V271.965H485.311V256.036H527.239V240.125H485.311V225.647H528.678V227.094ZM430.385 227.094C437.612 227.094 440.513 231.435 440.513 235.787C440.513 240.128 437.615 244.466 430.385 244.466H408.702V225.647L430.385 227.094ZM408.702 260.381H417.37L440.506 287.872H462.186L436.174 258.934C449.178 256.043 456.394 247.364 456.394 235.787C456.394 221.309 446.266 211.176 430.385 211.176H389.916V287.868H407.264L408.702 260.381ZM362.448 237.234C362.448 243.026 359.554 247.367 352.324 247.367H329.198V227.112H350.882C358.116 227.094 362.448 231.435 362.448 237.234ZM311.855 211.186V287.886H329.202V261.845H352.32C368.233 261.845 379.792 251.698 379.792 235.791C379.792 221.32 369.671 209.729 353.78 209.729L311.855 211.186ZM285.839 287.886H307.522L277.177 248.811L307.522 211.186H285.839L267.05 235.791L248.264 211.186H226.581L256.936 248.811L226.581 286.443H248.268L267.05 261.838L285.839 287.886ZM220.799 227.094V211.183H160.092V287.875H220.803V271.965H177.436V256.036H219.361V240.125H177.436V225.647H220.799V227.094ZM572.037 91.0699L602.4 137.37H624.083V60.6702H606.729V111.319L602.396 104.083L574.928 60.6702H551.803V137.37H569.14V85.2744L572.037 91.0699ZM496.87 89.6122L502.658 73.7012L508.447 89.6122L515.666 106.984H489.647L496.87 89.6122ZM527.232 137.37H546.025L512.779 60.6702H489.647L456.408 137.37H475.201L482.427 121.452H520.016L527.232 137.37ZM446.277 137.37L453.503 121.452H449.171C436.17 121.452 428.947 112.78 428.947 99.7419V98.3019C428.947 85.2673 436.174 76.5918 449.171 76.5918H467.963V60.6666H447.733C424.597 60.6666 411.599 76.5918 411.599 98.3019V99.7419C411.592 122.895 424.6 137.37 446.277 137.37ZM381.241 137.37H398.588V62.1279H381.241V137.37ZM343.666 76.5954C350.892 76.5954 353.787 80.9367 353.787 85.2744C353.787 89.6122 350.896 93.9499 343.666 93.9499H321.982V75.1376L343.666 76.5954ZM321.982 109.879H330.647L353.78 137.37H375.463L349.454 108.424C362.455 105.541 369.675 96.8512 369.675 85.2744C369.675 70.7999 359.55 60.6702 343.666 60.6702H303.193V137.37H320.534L321.982 109.879ZM290.175 76.5954V60.6702H229.464V137.37H290.182V121.452H246.815V105.541H288.74V89.6157H246.815V75.1447H290.178L290.175 76.5954ZM158.647 137.37H174.538L196.222 75.1447V137.37H213.569V60.6702H184.659L167.312 112.78L149.964 60.6702H121.058V137.37H138.402V75.1412L158.647 137.37ZM64.6975 89.6122L70.4717 73.7012L76.2601 89.6122L83.4832 106.984H57.4709L64.6975 89.6122ZM95.0457 137.37H113.831L80.5961 60.6702H58.9127L25.6667 137.37H44.4559L51.6825 121.452H89.2751L95.0457 137.37Z" fill="white"/>
</svg>
