<svg width="700" height="350" viewBox="0 0 700 350" fill="none" xmlns="http://www.w3.org/2000/svg">
<path d="M186.667 112.832V65.3334H28V287H75.6169V207.847H170.799V160.354H75.6169V112.832H186.667Z" fill="white"/>
<path d="M249.667 65.3334H203V287H249.667V65.3334Z" fill="white"/>
<path d="M428.018 224.209C418.343 233.312 406.214 239.405 393.109 241.743C380.01 244.086 366.501 242.557 354.259 237.354C342.017 232.15 331.569 223.493 324.207 212.47C316.845 201.442 312.893 188.509 312.827 175.274C312.77 162.04 316.609 149.078 323.868 137.979C331.131 126.886 341.498 118.144 353.698 112.823C365.888 107.516 379.384 105.865 392.506 108.085C405.634 110.301 417.82 116.286 427.565 125.305C433.227 110.541 441.409 96.8644 451.762 84.8766C434.734 71.6656 414.325 63.4887 392.846 61.2728C371.367 59.0662 349.69 62.91 330.307 72.3761C310.928 81.8468 294.617 96.5304 283.241 114.785C271.871 133.044 265.893 154.098 266.001 175.561C266.11 197.029 272.294 218.036 283.849 236.173C295.403 254.31 311.861 268.847 331.338 278.121C350.811 287.394 372.525 291.026 393.981 288.603C415.446 286.17 435.771 277.801 452.667 264.42C442.186 252.522 433.854 238.916 428.018 224.209Z" fill="white"/>
<path d="M556.497 60.6666C533.653 60.6666 511.315 67.3666 492.327 79.9383C473.329 92.5054 458.531 110.366 449.789 131.256C441.047 152.141 438.762 175.135 443.223 197.319C447.679 219.494 458.683 239.871 474.833 255.859C490.997 271.841 511.58 282.729 533.984 287.137C556.384 291.551 579.616 289.278 600.714 280.621C621.822 271.959 639.856 257.303 652.543 238.502C665.235 219.691 672 197.582 672 174.97C672 159.956 669.01 145.089 663.206 131.214C657.397 117.348 648.891 104.748 638.167 94.1286C627.438 83.5188 614.708 75.0969 600.696 69.3474C586.683 63.6167 571.659 60.6666 556.497 60.6666ZM556.497 242.873C542.925 242.877 529.665 238.902 518.383 231.44C507.096 223.982 498.306 213.382 493.103 200.97C487.908 188.568 486.541 174.914 489.19 161.744C491.839 148.566 498.363 136.474 507.966 126.97C517.55 117.465 529.77 110.996 543.077 108.385C556.384 105.759 570.178 107.1 582.71 112.238C595.246 117.376 605.956 126.071 613.492 137.245C621.042 148.406 625.053 161.537 625.053 174.97C625.053 192.971 617.83 210.234 604.972 222.966C592.119 235.712 574.677 242.868 556.497 242.873Z" fill="white"/>
<path d="M641.667 272.953C641.667 271.46 641.849 269.985 642.217 268.545C642.567 267.176 643.094 265.859 643.761 264.624C644.414 263.428 645.197 262.332 646.111 261.346C647.025 260.369 648.07 259.532 649.193 258.833C650.937 257.77 652.863 257.081 654.873 256.799C656.883 256.526 658.921 256.679 660.879 257.229C662.139 257.588 663.36 258.129 664.475 258.833C665.603 259.522 666.629 260.365 667.529 261.346C668.457 262.317 669.264 263.423 669.912 264.624C670.588 265.864 671.101 267.176 671.451 268.545C672.183 271.445 672.183 274.48 671.451 277.38C671.101 278.749 670.579 280.07 669.912 281.31C669.273 282.521 668.476 283.631 667.529 284.613C666.615 285.58 665.589 286.427 664.475 287.14C663.36 287.839 662.134 288.375 660.879 288.748C658.249 289.528 655.456 289.528 652.831 288.748C651.544 288.384 650.322 287.848 649.193 287.14C648.074 286.427 647.044 285.57 646.111 284.613C645.192 283.617 644.4 282.507 643.761 281.31C643.089 280.066 642.567 278.749 642.217 277.38C641.844 275.935 641.662 274.446 641.667 272.953ZM644.12 272.953C644.12 274.777 644.469 276.595 645.146 278.29C645.743 279.898 646.629 281.387 647.766 282.665C648.914 283.899 650.285 284.881 651.809 285.57C653.372 286.264 655.05 286.618 656.748 286.618C658.45 286.618 660.129 286.264 661.696 285.57C663.197 284.871 664.563 283.89 665.715 282.665C666.839 281.387 667.73 279.898 668.327 278.29C669.003 276.595 669.348 274.777 669.339 272.953C669.353 271.115 669.003 269.301 668.327 267.611C667.734 266.008 666.844 264.529 665.715 263.265C664.568 262.045 663.197 261.059 661.696 260.379C660.129 259.685 658.45 259.34 656.748 259.34C655.055 259.34 653.372 259.694 651.809 260.379C650.28 261.059 648.909 262.035 647.766 263.265C646.633 264.538 645.747 266.008 645.146 267.611C644.465 269.306 644.115 271.115 644.12 272.953ZM653.717 274.609V281.971H650.686V263.337H656.599C657.559 263.318 658.515 263.437 659.434 263.686C660.217 263.887 660.954 264.246 661.607 264.73C662.208 265.175 662.684 265.768 662.992 266.462C663.318 267.243 663.472 268.071 663.458 268.918C663.486 269.775 663.248 270.612 662.787 271.325C662.25 272.053 661.546 272.637 660.744 273.034C661.192 273.216 661.612 273.479 661.975 273.8C662.292 274.097 662.563 274.437 662.787 274.81C662.987 275.226 663.136 275.648 663.234 276.098C663.314 276.576 663.365 277.06 663.365 277.543V278.74C663.337 279.257 663.337 279.769 663.365 280.286C663.407 280.707 663.5 281.123 663.654 281.511V281.86H660.572C660.478 281.626 660.427 281.391 660.39 281.142C660.39 280.846 660.39 280.554 660.39 280.257C660.39 279.96 660.39 279.64 660.39 279.372V277.557C660.455 276.72 660.203 275.887 659.681 275.231C659.005 274.671 658.123 274.408 657.251 274.489L653.717 274.609ZM653.717 271.804H657.032C657.48 271.79 657.909 271.737 658.338 271.613C658.72 271.507 659.093 271.335 659.429 271.115C659.737 270.904 659.989 270.622 660.161 270.287C660.376 269.942 660.469 269.545 660.45 269.143C660.45 268.621 660.352 268.109 660.161 267.616C660.04 267.257 659.812 266.936 659.499 266.716C659.163 266.462 658.748 266.295 658.324 266.233C657.722 266.113 657.116 266.06 656.496 266.075H653.633L653.717 271.804Z" fill="white"/>
</svg>
