<svg width="700" height="350" viewBox="0 0 700 350" fill="none" xmlns="http://www.w3.org/2000/svg">
<path d="M617.625 144.677C617.63 137.991 612.213 132.564 605.525 132.559C605.522 132.559 605.519 132.559 605.516 132.559H465.689C440.193 132.559 419.469 152.207 419.469 177.706C419.469 203.207 440.194 222.848 465.683 222.848H577.982C588.915 222.848 597.797 232.832 597.797 243.756C597.797 254.68 588.914 264.673 577.986 264.673H438.181C431.496 264.81 426.184 270.339 426.32 277.028C426.451 283.523 431.686 288.756 438.181 288.889H577.993C603.489 288.889 624.232 269.252 624.232 243.757C624.232 218.254 603.489 198.627 577.993 198.627H465.689C454.778 198.627 445.888 188.627 445.888 177.709C445.888 166.786 454.778 156.801 465.689 156.801H605.51C612.197 156.801 617.619 151.378 617.619 144.692C617.619 144.688 617.619 144.685 617.619 144.681M371.029 78.618C371.029 68.8879 363.14 61 353.41 61C343.679 61 335.791 68.8879 335.791 78.618C335.791 88.3491 343.679 96.237 353.41 96.237C363.14 96.237 371.029 88.348 371.029 78.618Z" fill="white"/>
<path d="M297.269 96.2338C287.54 96.2338 279.653 88.3469 279.653 78.6169C279.653 68.888 287.54 61.0011 297.269 61.0011C306.998 61.0011 314.884 68.888 314.884 78.6169C314.884 88.3469 306.998 96.2338 297.269 96.2338Z" fill="white"/>
<path d="M241.118 96.2338C231.389 96.2338 223.502 88.3469 223.502 78.6169C223.502 68.888 231.389 61.0011 241.118 61.0011C250.847 61.0011 258.734 68.888 258.734 78.6169C258.734 88.3469 250.847 96.2338 241.118 96.2338Z" fill="white"/>
<path d="M184.973 96.2338C175.244 96.2338 167.357 88.3469 167.357 78.6169C167.357 68.888 175.244 61.0011 184.973 61.0011C194.702 61.0011 202.59 68.888 202.59 78.6169C202.59 88.3469 194.703 96.2338 184.973 96.2338Z" fill="white"/>
<path d="M128.839 96.2337C119.11 96.2391 111.219 88.3566 111.213 78.6277C111.208 68.8987 119.09 61.0065 128.819 61.0021C138.548 60.9967 146.439 68.8793 146.445 78.6082C146.45 88.3372 138.568 96.2283 128.839 96.2337Z" fill="white"/>
<path d="M275.254 132.568C274.873 132.568 274.511 132.647 274.152 132.679V132.568H155.248C108.009 132.568 76 163.491 76 210.729V276.791C76 284.084 81.9119 289.996 89.2046 289.996C96.4972 289.996 102.409 284.084 102.409 276.791V210.729C102.409 177.98 122.22 156.79 155.248 156.79H274.152V156.681C274.511 156.715 274.873 156.79 275.254 156.79C281.937 156.79 287.364 151.363 287.364 144.68C287.364 137.996 281.936 132.568 275.254 132.568Z" fill="white"/>
<path d="M115.627 210.726C115.627 217.416 121.047 222.843 127.736 222.848H248.824C255.512 222.848 260.933 217.426 260.933 210.738C260.933 210.735 260.933 210.731 260.933 210.726C260.936 204.04 255.516 198.616 248.828 198.612H248.824H127.731C121.044 198.618 115.625 204.039 115.621 210.726M340.201 144.678V276.778C340.201 284.077 346.116 289.994 353.414 290C360.713 289.994 366.628 284.077 366.63 276.778V144.678C366.628 137.384 360.712 131.473 353.418 131.476C353.418 131.476 353.416 131.476 353.414 131.476C346.121 131.473 340.206 137.381 340.201 144.673" fill="white"/>
</svg>
