<svg width="700" height="350" viewBox="0 0 700 350" fill="none" xmlns="http://www.w3.org/2000/svg">
<path d="M622.952 238.799L663.426 144.096H640.412L623.356 184.036L604.541 144.096H581.261L612.39 209.68L599.938 238.799H622.952ZM554.976 208.88V171.88C560.117 166.8 566.888 163.999 577.577 163.596V143.024C567.834 143.024 560.794 146.101 554.976 151.04V144.095H533.045V208.879H554.976V208.88ZM480.094 208.88V168.271C483.882 163.999 488.216 161.725 492.275 161.725C499.451 161.725 504.187 166.134 504.187 175.35V208.88H526.253V171.88C526.253 153.446 514.884 142.089 498.235 142.089C491.193 142.089 485.374 144.363 480.095 148.502V144.097H458.163V208.881L480.094 208.88ZM431.113 170.141H404.308C405.934 163.596 410.669 159.324 418.118 159.324C425.157 159.324 429.893 163.064 431.113 170.141ZM419.062 210.348C435.309 210.348 447.896 201.932 451.014 188.575H429.353C427.455 191.517 423.938 193.248 419.335 193.248C410.94 193.248 406.339 188.714 404.58 182.831H451.416L451.281 182.429C451.684 180.028 451.684 177.489 451.684 175.085C451.684 155.58 437.204 142.625 418.118 142.625C397.134 142.625 383.196 156.782 383.196 176.42C383.196 196.188 397.544 210.348 419.062 210.348ZM330.449 208.88V168.271C334.239 163.999 338.568 161.725 342.632 161.725C349.808 161.725 354.544 166.134 354.544 175.35V208.88H376.609V171.88C376.609 153.446 365.241 142.089 348.588 142.089C341.549 142.089 335.727 144.363 330.448 148.502V110H308.519V208.88H330.449ZM229.281 208.88V196.188L238.484 186.437L254.186 208.88H280.445L253.376 170.542L278.279 144.096H252.159L229.281 168.406V110H207.35V208.88H229.281ZM167.077 210.348C185.218 210.348 199.159 198.994 200.647 182.296H179.939C178.853 188.176 173.846 192.051 167.077 192.051C157.738 192.051 152.055 185.239 152.055 176.42C152.055 167.603 157.738 160.926 167.077 160.926C173.846 160.926 178.852 164.795 179.939 170.678H200.647C199.154 153.982 185.218 142.625 167.077 142.625C146.366 142.625 131.207 156.782 131.207 176.42C131.207 196.188 146.366 210.348 167.077 210.348ZM91.3396 192.452C82.405 192.452 75.9071 185.37 75.9071 176.42C75.9071 167.468 82.405 160.252 91.3396 160.252C96.2173 160.252 100.949 161.725 105.012 166.402V186.436C100.949 191.114 96.2129 192.452 91.3396 192.452ZM84.663 210.214C91.8375 210.214 97.7922 208.349 102.668 205.27V208.88H124.597V144.096H102.668V147.57C97.7878 144.495 91.8339 142.625 84.663 142.625C66.93 142.625 52.0429 157.052 52.0429 176.42C52.0437 195.655 66.93 210.214 84.663 210.214ZM11 239C36.9904 238.449 45.2455 226.411 45.2455 205.798V144.096H23.1825V208.704C23.1825 216.452 20.7627 219.057 11 219.057V239Z" fill="white"/>
<path d="M34.1226 110C41.6954 110 47.8287 116.056 47.8287 123.525C47.8287 130.999 41.6954 137.054 34.1226 137.054C26.5535 137.054 20.4172 130.999 20.4172 123.525C20.4128 116.056 26.5491 110 34.119 110" fill="white"/>
<path d="M678.111 154.371V143.838H680.598L682.197 147.777L683.149 150.43H683.283L684.237 147.777L685.803 143.838H688.253V154.371H686.382V149.715L686.618 146.147H686.48L684 152.743H682.398L679.92 146.147H679.78L680.019 149.715V154.371H678.111ZM671.032 154.371V145.673H667.67V143.839H676.475V145.673H673.078V154.371H671.032Z" fill="white"/>
</svg>
