<svg xmlns="http://www.w3.org/2000/svg" width="700" height="350" viewBox="0 0 700 350" fill="none"><path d="M556.56 123V194.529C556.56 198.065 558.266 200.127 560.029 201.427C561.915 202.797 564.688 203.487 568.422 203.487C570.784 203.487 573.905 202.64 573.905 202.64V196.225C572.971 196.288 572.14 196.347 571.221 196.347C565.661 196.347 564.844 193.999 564.844 191.384V123H556.56ZM381.668 123.728C375.424 123.728 369.781 125.846 365.778 129.66C361.891 133.381 359.736 138.512 359.736 144.063C359.736 150.175 362.022 154.949 366.785 158.707C370.985 162.025 376.541 164.167 381.89 166.212C391.19 169.79 399.906 173.054 399.906 182.188C399.906 186.252 398.627 189.73 396.213 192.112C393.557 194.733 389.737 195.985 384.687 195.985C375.836 195.985 369.392 190.684 365.777 180.372L357.832 182.671C359.543 186.854 362.454 192.889 366.672 196.953C371.295 201.438 377.038 203.609 384.24 203.609C392.767 203.609 399.242 201.231 403.484 196.468C407.883 191.511 408.855 185.171 408.855 180.736C408.855 174.383 406.373 169.476 401.358 165.607C396.981 162.21 391.316 160.023 385.804 157.982C376.824 154.661 368.253 151.501 368.349 143.338C368.382 139.531 369.6 136.57 371.818 134.504C374.077 132.404 377.297 131.357 381.44 131.357C385.793 131.357 389.672 132.674 392.63 135.231C395.348 137.558 397.326 141.015 398.224 144.913L405.945 143.824C402.561 131.328 394.285 123.728 381.668 123.728ZM27.741 124.818V202.518H36.0214V131.474L36.2446 131.716L55.9382 202.518H62.3163L82.1226 131.716L82.2346 131.474V202.518H90.5157V124.818H76.7502L59.1829 187.27V187.51L59.0702 187.27L41.5029 124.818H27.741ZM421.949 126.391V145.03H414.005V152.172H421.949V194.533C421.949 198.07 423.437 200.131 425.195 201.432C427.085 202.801 429.849 203.491 433.588 203.491C435.953 203.491 439.182 202.644 439.182 202.644V196.231C438.264 196.292 437.3 196.352 436.385 196.352C430.818 196.352 430.23 194.004 430.23 191.389V152.169H439.181V145.028H430.23V126.388H421.949V126.391ZM124.083 143.939C117.11 143.939 111.201 146.978 107.076 152.654C103.246 157.95 101.146 165.433 101.146 173.714C101.146 182.002 103.248 189.471 107.076 194.776C111.203 200.466 117.112 203.491 124.083 203.491C131.083 203.491 136.975 200.468 141.091 194.776C144.921 189.473 147.02 182.004 147.02 173.714C147.02 165.435 144.919 157.95 141.091 152.654C136.976 146.978 131.083 143.939 124.083 143.939ZM601.766 144.061C598.228 144.061 594.935 144.764 592.144 146.118C589.385 147.452 586.967 149.487 585.096 152.05C581.339 157.135 579.165 164.686 579.165 173.835C579.165 184.018 581.87 191.786 586.775 196.952C591.947 202.413 598.54 203.486 603.111 203.486C614.994 203.486 620.818 196.533 623.252 190.172L616.65 186.662C615.044 190.535 611.356 196.466 603.111 196.466C598.4 196.466 594.542 194.379 591.811 190.535C589.169 186.815 587.687 181.668 587.672 175.529H623.926V170.083C623.926 160.676 621.607 153.659 617.324 149.385C613.671 145.759 608.551 144.061 601.766 144.061ZM208.9 144.182C199.557 144.182 186.297 150.981 186.297 173.834C186.297 196.022 199.516 203.487 208.452 203.487C213.667 203.487 218.405 200.362 221.654 195.863L222.102 195.621V206.514C222.102 214.156 215.989 218.86 209.458 218.86C203.109 218.86 197.486 217.549 192.897 215.228V222.973C196.762 224.767 203.052 225.878 208.451 225.878C223.15 225.878 230.157 217.129 230.157 204.456V145.273H224.002L222.212 151.324C219.178 147.042 215.202 144.182 208.9 144.182ZM262.387 144.182C250.626 144.182 245.059 151.802 242.694 156.527L249.295 160.279C250.223 157.578 253.558 151.322 262.499 151.322C269.549 151.322 273.129 154.688 273.129 161.368V163.427C273.129 163.427 273.185 164.053 273.016 164.274C272.754 164.632 272.011 164.922 270.219 165.121C260.347 166.314 253.785 168.067 248.958 171.415C243.717 175.058 240.454 180.158 240.454 187.148C240.454 192.115 242.676 196.352 245.603 199.37C248.322 202.15 252.026 203.599 256.121 203.729C264.838 204.032 270.576 200.106 273.353 195.498C273.568 198.667 274.618 200.473 276.934 201.792C279.109 203.05 282.676 202.799 284.209 202.397V196.346C282.363 196.246 281.186 195.295 281.186 192.836V161.489C281.186 155.77 279.111 151.076 275.145 148.055C271.871 145.546 267.302 144.182 262.387 144.182ZM319.342 144.182C313.952 144.182 308.438 147.201 303.788 152.897V145.273H295.507V202.643H303.788V160.039C306.605 156.784 312.92 151.324 318.669 151.324C324.434 151.324 326.95 154.383 326.95 161.247V202.64H335.231V161.004C335.23 148.61 327.08 144.182 319.342 144.182ZM469.169 144.182C457.416 144.182 451.848 151.802 449.475 156.527L456.078 160.279C457.008 157.578 460.338 151.322 469.28 151.322C476.329 151.322 479.91 154.688 479.91 161.368V163.427C479.91 163.427 479.853 164.053 479.688 164.274C479.428 164.632 478.8 164.922 477.004 165.121C467.133 166.312 460.571 168.067 455.742 171.415C450.507 175.058 447.239 180.158 447.239 187.148C447.239 192.115 449.456 196.351 452.386 199.37C455.104 202.15 458.813 203.599 462.906 203.729C471.614 204.032 477.36 200.106 480.138 195.498C480.357 198.664 481.399 200.473 483.718 201.792C485.889 203.05 489.459 202.799 490.993 202.397V196.346C489.15 196.246 487.97 195.295 487.97 192.836V161.489C487.97 155.77 485.789 151.076 481.815 148.055C478.54 145.546 474.082 144.182 469.169 144.182ZM526.124 144.182C520.721 144.182 515.218 147.201 510.57 152.897V145.273H502.289V202.643H510.57V160.039C513.391 156.782 519.696 151.324 525.452 151.324C531.205 151.324 533.733 154.383 533.733 161.247V202.64H542.013V161.004C542.014 148.61 533.864 144.182 526.124 144.182ZM183.165 144.424C174.763 144.424 169.783 147.948 165.485 156.284V145.271H157.203V202.518H165.485V170.083C167.529 158.301 173.297 152.776 183.165 152.776V144.424ZM629.516 145.149L647.979 202.033V202.518C646.875 207.969 643.682 214.7 640.818 216.801C638.284 218.659 635.542 218.86 633.432 218.86C632.413 218.86 630.311 218.488 629.403 218.256V225.154C630.55 225.456 633.193 226 634.887 226C638.831 226 642.161 224.933 644.957 222.73C648.308 220.099 652.014 213.235 653.797 207.36L672.259 145.151H664.202L652.118 189.207L652.005 190.177L651.782 189.207L637.571 145.151H629.516L629.516 145.149ZM124.083 151.081C132.998 151.081 138.293 159.544 138.293 173.713C138.293 187.887 132.998 196.348 124.083 196.348C115.183 196.348 109.873 187.888 109.873 173.713C109.873 159.544 115.183 151.081 124.083 151.081ZM209.459 151.202C214.13 151.202 218.233 153.385 222.103 158.586V185.938C219.961 192.534 213.823 196.346 209.459 196.346C200.92 196.346 195.024 190.594 195.024 173.349C195.026 158.851 200.317 151.202 209.459 151.202ZM601.99 151.202C611.478 151.202 615.717 156.629 615.754 168.389H587.892C588.612 156.637 593.168 151.202 601.99 151.202ZM273.353 171.414V185.935C272.97 190.95 264.309 197.019 257.239 196.586C253.339 196.355 249.581 192.959 249.182 187.388C248.535 178.079 255.001 174.213 269.434 172.501C270.44 172.405 272.382 172.018 273.353 171.414ZM480.136 171.414V185.935C479.754 190.949 471.093 197.019 464.023 196.586C460.132 196.352 456.355 192.954 455.966 187.388C455.309 178.079 461.782 174.213 476.218 172.501C477.217 172.405 479.173 172.018 480.136 171.414Z" fill="white"></path></svg>