<svg width="700" height="350" viewBox="0 0 700 350" fill="none" xmlns="http://www.w3.org/2000/svg">
<path d="M105.49 258.234C98.0866 256.013 94.8817 254.568 94.8817 250.348C94.8817 246.571 99.9651 245.238 104.274 245.238C108.031 245.238 112.12 246.349 114.882 248.126C116.098 248.903 117.865 248.57 118.64 247.35C118.75 247.239 118.75 247.127 118.75 247.127L119.965 244.573C120.628 243.351 120.186 241.796 118.971 241.019C114.55 238.241 109.468 236.799 104.274 236.799C93.5563 236.799 86.3732 242.352 86.3732 250.57C86.3732 261.231 95.3238 264.009 102.617 266.12C110.131 268.341 113.446 269.895 113.446 274.338C113.446 278.892 108.143 280.447 103.17 280.447C98.4187 280.447 93.2252 277.892 90.1313 275.005C89.5791 274.448 88.6949 274.116 87.8106 274.228C86.9263 274.338 86.1531 274.785 85.822 275.561L84.3856 278.005C83.7224 279.115 83.9435 280.449 84.8277 281.336C89.4681 286 96.5401 288.888 103.17 288.888C114.441 288.888 121.955 283.003 121.955 274.338C121.954 263.23 112.893 260.454 105.49 258.234ZM154.993 238.463C154.551 237.463 153.557 236.907 152.562 236.907H149.58C148.474 236.907 147.59 237.573 147.148 238.572L126.153 285C125.49 286.331 126.153 287.997 127.479 288.665C127.811 288.776 128.252 288.887 128.583 288.887H131.677C132.782 288.887 133.666 288.221 134.219 287.332L139.413 275.783H162.949L168.254 287.446C168.696 288.443 169.69 289 170.685 289H173.779C175.325 289 176.54 287.777 176.54 286.222C176.54 285.779 176.43 285.447 176.319 285.112L154.993 238.463ZM143.059 267.229L151.015 249.459L159.081 267.339L143.059 267.229ZM189.8 236.797H187.037C185.491 236.797 184.275 238.018 184.275 239.574V285.998C184.275 287.553 185.49 288.777 187.037 288.777H189.8C191.347 288.777 192.563 287.553 192.563 285.998V239.574C192.563 238.129 191.348 236.797 189.8 236.797ZM247.481 236.797H244.718C243.171 236.797 241.955 238.018 241.955 239.574V273.337L215.988 237.909C215.436 237.242 214.661 236.799 213.778 236.799H210.573C209.027 236.799 207.81 238.02 207.81 239.576V286C207.81 287.556 209.026 288.778 210.573 288.778H213.336C214.882 288.778 216.099 287.556 216.099 286V252.238L241.955 287.667C242.508 288.332 243.282 288.777 244.165 288.777H247.37C248.916 288.777 250.133 287.553 250.133 285.998V239.574C250.134 238.129 248.917 236.797 247.481 236.797ZM294.996 236.797H261.072C259.525 236.797 258.31 238.018 258.31 239.574V242.352C258.31 243.905 259.525 245.129 261.072 245.129H274.001V285.998C274.001 287.553 275.216 288.777 276.763 288.777H279.526C281.073 288.777 282.289 287.553 282.289 286.111V245.24H294.997C296.543 245.24 297.759 244.019 297.759 242.463V239.686C297.758 238.129 296.543 236.908 294.996 236.797C295.107 236.908 295.107 236.908 294.996 236.797ZM315.328 262.12H300.631C299.084 262.12 297.869 263.343 297.869 264.897V267.118C297.869 268.674 299.084 269.895 300.631 269.895H315.328C316.874 269.895 318.089 268.674 318.089 267.118V264.897C318.09 263.343 316.875 262.12 315.328 262.12ZM372.677 260.454H370.136H361.848C360.301 260.454 359.085 261.673 359.085 263.23V266.007C359.085 267.562 360.301 268.785 361.848 268.785H367.373V277.226C364.167 279.448 360.301 280.669 356.322 280.669C346.156 280.669 337.868 272.673 337.868 262.788C337.868 252.904 346.156 244.907 356.322 244.907C361.073 244.907 365.714 246.686 369.139 249.683C370.244 250.682 372.013 250.573 373.007 249.461L373.116 249.349L374.774 247.239C375.658 246.129 375.547 244.462 374.443 243.463C369.47 239.021 363.061 236.688 356.432 236.688C341.735 236.688 329.691 248.352 329.691 262.679C329.691 277.006 341.624 288.668 356.322 288.668C362.952 288.668 369.581 286.223 374.444 282.004C374.996 281.447 375.438 280.671 375.438 279.892V263.122C375.44 261.673 374.225 260.454 372.677 260.454ZM411.463 236.797C396.766 236.797 384.832 248.458 384.832 262.786C384.832 277.113 396.766 288.777 411.463 288.777C426.159 288.777 438.093 277.113 438.093 262.786C438.093 248.458 426.159 236.797 411.463 236.797ZM411.463 280.557C401.296 280.557 393.119 272.561 393.119 262.676C393.119 252.902 401.297 244.906 411.463 244.906C421.629 244.906 429.805 252.902 429.805 262.676C429.806 272.561 421.518 280.557 411.463 280.557ZM481.74 261.343C484.504 258.898 486.05 255.344 486.05 251.125C486.05 242.349 479.53 236.907 468.922 236.907H450.027C448.479 236.907 447.264 238.129 447.264 239.684V285.996C447.264 287.552 448.479 288.774 450.027 288.774H469.032C481.077 288.774 488.37 283.11 488.37 273.557C488.372 268.119 485.939 263.896 481.74 261.343ZM468.922 257.899H455.552V245.016H468.922C473.01 245.016 477.873 246.126 477.873 251.347C477.873 255.678 474.889 257.899 468.922 257.899ZM455.551 266.118H468.921C473.12 266.118 480.193 267.007 480.193 273.225C480.193 279.333 474.115 280.556 468.921 280.556H455.551V266.118ZM521.963 238.463C521.521 237.463 520.525 236.907 519.532 236.907H516.548C515.444 236.907 514.448 237.573 514.007 238.572L493.013 284.886C492.35 286.218 492.903 287.883 494.339 288.552C494.671 288.774 495.112 288.774 495.554 288.774H498.648C499.752 288.774 500.636 288.108 501.08 287.109L506.272 275.558H529.808L535.112 287.221C535.554 288.22 536.549 288.777 537.544 288.777H540.638C542.186 288.777 543.402 287.553 543.402 285.998C543.402 285.555 543.291 285.223 543.18 284.888L521.963 238.463ZM509.919 267.229L517.874 249.459L525.94 267.339L509.919 267.229ZM556.77 236.797H554.005C552.458 236.797 551.243 238.018 551.243 239.574V285.998C551.243 287.553 552.458 288.777 554.005 288.777H556.77C558.316 288.777 559.532 287.553 559.532 285.998V239.574C559.533 238.129 558.205 236.797 556.77 236.797ZM614.34 236.797H611.578C610.028 236.797 608.813 238.018 608.813 239.574V273.337L582.846 237.909C582.293 237.242 581.52 236.799 580.636 236.799H577.432C575.884 236.799 574.67 238.02 574.67 239.576V286C574.67 287.556 575.884 288.778 577.432 288.778H580.196C581.742 288.778 582.958 287.556 582.958 286V252.238L608.815 287.667C609.368 288.332 610.141 288.777 611.025 288.777H614.23C615.777 288.777 616.993 287.553 616.993 285.998V239.574C617.102 238.129 615.887 236.908 614.34 236.797Z" fill="white"/>
<path d="M383.541 161.94V208.458H375.142V155.488L383.541 161.94ZM545.559 208.232H512.734L512.513 208.004L483.557 178.691C482.342 177.446 480.575 177.106 479.027 177.784C477.48 178.463 476.485 180.047 476.485 181.745V208.344H467.864V142.472C467.864 141.341 467.422 140.209 466.538 139.416L442.555 116.213C441.782 115.421 440.786 115.082 439.682 115.082H427.636C425.316 115.082 423.436 117.005 423.436 119.383V208.572H414.926V65.2803C414.926 63.5825 413.932 61.9975 412.384 61.3192C410.837 60.6399 408.958 61.0928 407.853 62.2239L368.067 103.537C367.294 104.329 366.852 105.461 366.852 106.48V138.398L350.606 125.948C349.059 124.816 346.959 124.816 345.521 126.06L308.499 156.507C307.505 157.299 306.952 158.544 306.952 159.79V208.346H298.553V181.635C298.553 172.241 292.254 162.28 280.539 162.28C268.825 162.28 262.525 172.354 262.525 181.747V208.346H254.015V190.236C254.015 182.878 249.042 175.069 239.869 175.069C230.696 175.069 225.723 182.878 225.723 190.236V208.346H217.213V207.555C217.213 204.16 217.213 200.763 217.213 197.368C217.213 191.144 211.466 185.599 204.945 185.599C198.425 185.599 192.679 191.032 192.679 197.257V208.348H155.547C153.226 208.348 151.347 210.273 151.347 212.649C151.347 213.78 151.788 214.799 152.562 215.591C153.336 216.381 154.441 216.836 155.547 216.836H196.769C197.873 216.836 198.979 216.385 199.753 215.591C200.526 214.799 200.969 213.666 200.969 212.536V197.936C200.969 196.351 202.626 193.974 204.947 193.974C207.268 193.974 208.926 196.125 208.926 198.05V212.537C208.926 214.914 210.805 216.838 213.126 216.838H229.925C232.245 216.838 234.124 214.914 234.124 212.537V190.126C234.124 187.863 235.34 183.448 239.872 183.448C244.403 183.448 245.618 187.747 245.618 190.126V212.647C245.618 215.022 247.497 216.947 249.818 216.947H266.617C267.721 216.947 268.827 216.495 269.6 215.702C270.373 214.909 270.815 213.777 270.815 212.647V181.747C270.815 178.011 272.805 170.769 280.541 170.769C287.614 170.769 290.266 177.22 290.266 181.633V212.648C290.266 215.023 292.145 216.948 294.466 216.948H311.154C313.474 216.948 315.353 215.023 315.353 212.648V161.941L315.684 161.714L348.398 134.889L367.075 149.15V212.647C367.075 215.022 368.953 216.947 371.274 216.947H387.74C390.061 216.947 391.94 215.022 391.94 212.647V159.79C391.94 158.431 391.277 157.186 390.282 156.394L375.253 144.962V108.29L375.475 108.063L406.75 75.5795V212.647C406.75 215.022 408.629 216.947 410.95 216.947H427.75C430.069 216.947 431.948 215.022 431.948 212.647V123.457H438.138L438.359 123.683L459.578 144.282V212.647C459.578 215.022 461.457 216.947 463.777 216.947H480.686C483.006 216.947 484.885 215.022 484.885 212.647V191.934L508.205 215.476C508.978 216.268 510.083 216.722 511.079 216.722H545.669C547.99 216.61 549.76 214.57 549.649 212.307C549.426 210.155 547.769 208.346 545.559 208.232Z" fill="white"/>
</svg>
