<svg width="700" height="350" viewBox="0 0 700 350" fill="none" xmlns="http://www.w3.org/2000/svg">
<path d="M141.817 303.513L30.516 231.058C30.516 231.058 16.5584 223.032 13.3632 208.083C8.87484 187.092 23.6694 169.095 23.6694 169.095L168.119 263.168C179.262 270.429 182.302 285.287 175.14 296.495C167.782 308.005 152.662 310.547 141.813 303.515L141.817 303.513Z" fill="white"/>
<path d="M36.3949 153.566C36.3949 153.566 19.3464 143.272 19.3464 119.462C19.3464 95.7342 36.3876 85.5663 36.3876 85.5663L97.2351 45.7437C108.471 38.6242 123.35 41.9601 130.47 53.1956C137.473 64.2478 134.372 78.869 123.486 86.1267L72.2022 119.52L159.58 176.428C159.58 176.428 175.308 185.438 178.406 200.65C182.732 221.872 168.124 239.357 168.124 239.357L36.3949 153.566ZM36.0722 307.354C41.7833 307.354 45.8495 305.542 49.8163 302.971L79.5194 283.623L49.8163 264.279C45.8131 261.7 41.6111 259.896 36.0722 259.896C22.9662 259.708 12.1893 270.181 12.0025 283.286C11.8145 296.392 22.2869 307.168 35.3929 307.355C35.6197 307.358 35.8453 307.358 36.0722 307.354Z" fill="white"/>
<path d="M150.923 95.7924C145.209 95.7924 141.142 97.6047 137.176 100.174L107.471 119.52L137.176 138.866C141.179 141.447 145.384 143.252 150.923 143.252C164.029 143.252 174.653 132.627 174.653 119.521C174.653 106.415 164.029 95.7924 150.923 95.7924Z" fill="white"/>
<path d="M274.498 232.03C280.779 232.03 286.636 230.327 291.212 226.387V235.223C286.1 238.736 280.032 240.225 273.645 240.225C257.56 240.225 246.39 229.046 246.39 212.97C246.39 196.999 257.888 185.822 273.859 185.822C280.14 185.822 285.994 187.634 290.679 191.145V200.832C286.528 196.362 280.781 194.02 274.39 194.02C263.211 194.02 255.333 201.793 255.333 212.968C255.332 224.147 263.318 232.03 274.498 232.03ZM309.416 239.271H300.793V170.145L309.416 175.475V195.726C313.356 189.659 319.639 185.828 327.623 185.828C340.826 185.828 347.852 195.513 347.852 208.396V239.272H339.123V209.885C339.123 199.664 334.652 194.237 325.493 194.237C315.807 194.237 309.41 202.54 309.41 212.974L309.418 239.274V239.271H309.416ZM401.404 230.319C397.042 236.494 390.334 240.22 382.136 240.22C366.805 240.22 355.839 228.83 355.839 213.285C355.839 197.429 366.805 185.817 382.136 185.817C390.334 185.817 397.042 189.65 401.404 195.934V186.775H410.136V239.262H401.404V230.319ZM364.782 213.179C364.782 224.038 372.342 232.023 382.988 232.023C393.74 232.023 401.404 224.038 401.404 213.179C401.404 202.106 393.742 194.015 382.988 194.015C372.343 194.022 364.782 202.111 364.782 213.186V213.179ZM432.175 239.271H423.551V186.782H432.175V197.96C436.326 190.186 443.035 185.824 451.339 185.824V195.725C440.904 194.234 432.175 201.262 432.175 214.249V239.271ZM539.706 216.379H498.29C499.568 225.857 507.021 232.137 517.454 232.137C524.162 232.137 530.658 230.22 536.193 226.28V234.586C530.551 238.418 524.162 240.228 517.454 240.228C500.951 240.228 489.138 229.583 489.138 213.498C489.138 197.74 499.146 185.818 515.011 185.818C530.128 185.818 540.032 196.995 540.032 212.008C540.034 213.47 539.925 214.933 539.706 216.379ZM498.397 209.358H530.872C530.02 200.411 524.377 193.813 515.114 193.813C505.531 193.808 499.781 200.517 498.398 209.354L498.397 209.358ZM558.126 239.271H549.501V186.782H558.126V197.96C562.277 190.186 568.983 185.824 577.287 185.824V195.725C566.857 194.234 558.126 201.262 558.126 214.249V239.271ZM628.502 216.379H587.086C588.36 225.857 595.816 232.137 606.248 232.137C612.956 232.137 619.451 230.22 624.988 226.28V234.586C619.344 238.418 612.956 240.228 606.248 240.228C589.745 240.228 577.933 229.583 577.933 213.498C577.933 197.74 587.938 185.818 603.803 185.818C618.92 185.818 628.821 196.995 628.821 212.008C628.824 213.47 628.716 214.932 628.502 216.379ZM587.193 209.358H619.662C618.812 200.412 613.167 193.813 603.908 193.813C594.327 193.808 588.582 200.517 587.194 209.354V209.358H587.193ZM680.269 230.256C676.014 236.541 669.199 240.371 661 240.371C645.667 240.371 634.701 228.978 634.701 213.433C634.701 197.576 645.667 185.965 661 185.965C669.199 185.965 676.014 189.907 680.269 196.293V170.156L689 175.489V239.267H680.269V230.259V230.256ZM643.647 213.329C643.647 224.189 651.203 232.175 661.853 232.175C672.605 232.175 680.271 224.189 680.271 213.329C680.271 202.256 672.607 194.165 661.853 194.165C651.204 194.165 643.647 202.254 643.647 213.332V213.329ZM466.408 221.823C466.408 229.171 470.881 232.044 476.524 232.044C480.907 232.087 485.192 230.746 488.768 228.211V236.624C485.144 239.285 480.144 240.35 475.779 240.35C464.599 240.35 457.784 235.345 457.784 221.184V170.133L466.408 175.463V221.823ZM480.349 186.097C477.262 184.095 473.139 184.972 471.136 188.059C469.134 191.145 470.013 195.269 473.099 197.271L473.282 197.388C475.471 198.788 478.272 198.788 480.459 197.388L489.035 191.888L480.349 186.097ZM264.384 156.339C270.556 156.339 275.029 153.678 275.029 148.885C275.029 146.01 273.54 143.775 269.592 142.177L257.134 137.174C250.746 134.406 247.233 130.786 247.233 123.971C247.233 114.815 254.58 109.065 265.225 109.065C271.398 109.065 277.147 110.768 281.194 113.856V122.918C276.405 118.658 270.546 116.21 265.337 116.21C259.798 116.21 255.858 118.763 255.858 123.025C255.858 126.218 257.35 128.134 261.504 129.731L273.962 134.736C280.668 137.611 283.759 141.655 283.759 147.298C283.759 157.306 275.665 163.481 264.277 163.481C257.353 163.481 251.071 161.564 246.496 158.16V148.778C252.03 153.996 258.207 156.339 264.384 156.339ZM300.157 144.946C300.157 152.292 304.627 155.167 310.273 155.167C314.651 155.206 318.932 153.865 322.505 151.334V159.746C318.881 162.407 313.878 163.472 309.512 163.472C298.333 163.472 291.522 158.469 291.522 144.308V98.5487L300.145 93.2124L300.157 144.946ZM370.743 153.569C366.378 159.746 359.67 163.472 351.471 163.472C336.14 163.472 325.174 152.081 325.174 136.535C325.174 120.677 336.14 109.066 351.471 109.066C359.67 109.066 366.378 112.899 370.743 119.183V110.032H379.473V162.514H370.743V153.571V153.569ZM334.118 136.43C334.118 147.29 341.678 155.274 352.325 155.274C363.079 155.274 370.744 147.29 370.744 136.43C370.744 125.357 363.08 117.264 352.325 117.264C341.678 117.264 334.118 125.357 334.118 136.43ZM401.51 162.514H392.886V110.032H401.51V118.974C405.45 112.907 411.733 109.073 419.717 109.073C432.92 109.073 439.946 118.763 439.946 131.646V162.521H431.217V133.138C431.217 122.917 426.745 117.487 417.59 117.487C407.9 117.487 401.504 125.792 401.504 136.227L401.51 162.514ZM493.499 153.358C489.242 159.641 482.428 163.474 474.229 163.474C458.898 163.474 447.932 152.081 447.932 136.535C447.932 120.677 458.898 109.066 474.229 109.066C482.428 109.066 489.242 113.006 493.499 119.394V98.5414L502.231 93.2112V162.514H493.499V153.358ZM456.876 136.43C456.876 147.29 464.436 155.274 475.081 155.274C485.836 155.274 493.501 147.29 493.501 136.43C493.501 125.357 485.838 117.264 475.081 117.264C464.443 117.264 456.876 125.357 456.876 136.43ZM653.206 153.358C648.948 159.641 642.133 163.474 633.935 163.474C618.602 163.474 607.636 152.081 607.636 136.535C607.636 120.677 618.602 109.066 633.935 109.066C642.133 109.066 648.948 113.006 653.206 119.394V98.5414L661.935 93.2112V162.514H653.206V153.358ZM616.581 136.43C616.581 147.29 624.137 155.274 634.787 155.274C645.538 155.274 653.206 147.29 653.206 136.43C653.206 125.357 645.539 117.264 634.787 117.264C624.146 117.264 616.581 125.357 616.581 136.43ZM557.17 153.569C552.805 159.746 546.097 163.472 537.899 163.472C522.568 163.472 511.602 152.081 511.602 136.535C511.602 120.677 522.568 109.066 537.899 109.066C546.097 109.066 552.805 112.899 557.17 119.183V110.032H565.901V162.514H557.17V153.571V153.569ZM520.545 136.43C520.545 147.29 528.103 155.274 538.751 155.274C549.502 155.274 557.17 147.29 557.17 136.43C557.17 125.357 549.503 117.264 538.751 117.264C528.097 117.264 520.545 125.357 520.545 136.43ZM587.938 162.514H579.313V110.032H587.938V121.211C592.089 113.438 598.797 109.073 607.102 109.073V118.974C596.667 117.485 587.938 124.511 587.938 137.5V162.514ZM312.312 121.211C315.394 123.221 319.524 122.351 321.535 119.268C322.019 118.525 322.351 117.693 322.51 116.821C322.828 115.077 322.434 113.277 321.418 111.823C320.916 111.104 320.278 110.49 319.538 110.018L319.354 109.904C317.162 108.512 314.361 108.52 312.177 109.928L303.607 115.448L312.312 121.211Z" fill="white"/>
</svg>
