<svg width="700" height="350" viewBox="0 0 700 350" fill="none" xmlns="http://www.w3.org/2000/svg">
<path d="M192.189 241.22C192.189 245 194.085 248.082 199.056 250.439C205.918 253.748 217.02 256.588 226.962 256.588C239.496 256.588 249.905 252.805 257.238 246.19C259.6 244.058 261.583 241.203 261.99 237.443C262.915 228.825 253.823 214.424 235.009 203.878C244.154 209.004 246.357 214.275 246.357 221.135C246.357 231.298 238.314 238.156 226.723 238.156C215.618 238.156 206.142 232.475 200.946 232.475C195.751 232.475 192.189 236.018 192.189 241.22Z" fill="white"/>
<path d="M318.046 133.74H334.318V104.724H345.863V93H306.5V104.723H318.046V133.74Z" fill="white"/>
<path d="M357.861 133.74L366.15 109.377L374.439 133.74H390.35L374.757 93H357.542L341.95 133.74H357.861Z" fill="white"/>
<path d="M397.991 133.74H414.262V104.724H425.809V93H386.448V104.723H397.991V133.74Z" fill="white"/>
<path d="M437.804 133.74L446.094 109.377L454.383 133.74H470.292L454.701 93H437.487L421.894 133.74H437.804Z" fill="white"/>
<path d="M593.96 162.872C596.115 167.699 598.548 172.394 601.266 176.921L611.893 194.843H619.604V154.106H612.716V168.317C612.716 174.544 612.862 179.784 613.381 185.201L613.245 185.245C611.246 180.543 608.926 175.981 606.299 171.592L595.766 154.103H587.265V194.843H594.145V180.251C594.145 173.563 594.052 168.187 593.757 162.897L593.96 162.872Z" fill="white"/>
<path d="M556.997 183.332H569.935L573.629 194.843H581.614L568.371 154.106H558.9L545.817 194.843H553.515L556.997 183.332ZM561.365 167.643C562.075 165.217 562.71 162.398 563.304 159.999H563.432C564.045 162.355 564.702 165.133 565.497 167.643L568.716 177.688H558.213L561.365 167.643Z" fill="white"/>
<path d="M435.653 189.321C432.203 189.295 428.819 188.404 425.808 186.721L424.15 192.886C426.385 194.247 430.859 195.481 435.173 195.481C445.698 195.481 450.634 189.792 450.634 183.239C450.634 177.381 447.236 173.825 440.15 171.128C434.702 169.053 432.348 167.581 432.348 164.458C432.348 162.058 434.359 159.552 439.082 159.552C441.913 159.531 444.706 160.195 447.227 161.486L449.008 155.483C446.883 154.406 443.644 153.465 439.233 153.465C430.391 153.465 424.813 158.496 424.813 165.162C424.813 171.001 429.115 174.609 435.857 177C441.008 178.867 443.084 180.683 443.084 183.758C443.061 187.096 440.403 189.321 435.653 189.321Z" fill="white"/>
<path d="M328.637 159.609C331.365 159.578 334.071 160.117 336.575 161.196L338.197 155.278C336.688 154.463 333.229 153.47 328.32 153.47C315.862 153.47 306.5 161.539 306.5 174.96C306.5 187.355 314.379 195.482 327.328 195.482C332.256 195.482 336.133 194.519 337.9 193.633L336.671 187.771C334.701 188.653 331.572 189.251 328.544 189.251C319.583 189.251 314.352 183.557 314.352 174.585C314.344 164.794 320.32 159.609 328.637 159.609Z" fill="white"/>
<path d="M536.761 194.843V160.362H548.52V154.106H517.669V160.362H529.322V194.843H536.761Z" fill="white"/>
<path d="M685.578 154.106L680.668 164.54C679.28 167.512 678.152 170.026 677.143 172.609H677.019C675.905 169.846 674.86 167.533 673.463 164.54L668.629 154.106H660.123L673.009 177.893V194.848H680.457V177.688L694 154.113L685.578 154.106Z" fill="white"/>
<path d="M359.781 153.439C348.267 153.439 340.365 162.276 340.365 174.786C340.365 186.713 347.653 195.517 359.175 195.517H359.237C370.394 195.517 378.679 187.713 378.679 174.059C378.679 162.418 371.663 153.439 359.781 153.439ZM359.487 189.546H359.429C352.312 189.546 348.147 182.701 348.171 174.599C348.192 166.499 352.08 159.39 359.509 159.39C366.931 159.39 370.756 166.653 370.756 174.337C370.756 182.869 366.677 189.559 359.483 189.559L359.487 189.546Z" fill="white"/>
<path d="M648.17 159.609C650.903 159.578 653.609 160.123 656.116 161.196L657.742 155.278C656.227 154.463 652.771 153.47 647.862 153.47C635.397 153.47 626.042 161.539 626.042 174.96C626.042 187.355 633.921 195.482 646.866 195.482C651.792 195.482 655.672 194.523 657.438 193.633L656.207 187.771C654.238 188.663 651.109 189.256 648.081 189.256C639.126 189.256 633.891 183.557 633.891 174.585C633.883 164.794 639.858 159.609 648.17 159.609Z" fill="white"/>
<path d="M505.046 154.106H497.598V194.848H521.803V188.598H505.046V154.106Z" fill="white"/>
<path d="M489.119 177.378V154.106H481.671V177.858C481.671 185.84 478.449 189.525 473.086 189.525C468.036 189.525 464.729 185.817 464.729 177.858V154.106H457.281V177.413C457.281 190.223 463.411 195.514 472.812 195.514C482.66 195.516 489.119 189.929 489.119 177.378Z" fill="white"/>
<path d="M417.405 154.106H410.515V168.317C410.515 174.544 410.657 179.784 411.181 185.201L411.044 185.245C409.043 180.543 406.72 175.976 404.098 171.592L393.565 154.103H385.063V194.843H391.961V180.251C391.961 173.563 391.854 168.187 391.565 162.897L391.753 162.855C393.904 167.685 396.341 172.375 399.065 176.904L409.686 194.822H417.403L417.405 154.106Z" fill="white"/>
<path d="M449.254 215.208H441.811V255.942H449.254V215.208Z" fill="white"/>
<path d="M390.622 236.847V236.68C394.448 235.331 397.975 231.778 397.975 226.573C397.975 223.104 396.695 220.31 394.492 218.459C391.765 216.184 387.058 215.203 382.011 215.203C378.265 215.145 374.515 215.436 370.818 216.07V255.94H378.15V239.327H381.869C386.065 239.427 387.987 241.138 389.145 246.399C390.27 251.427 391.247 254.759 391.865 255.94H399.453C398.641 254.364 397.54 249.726 396.261 244.672C395.249 240.747 393.549 237.958 390.622 236.847ZM382.512 233.912H378.141V221.14C379.649 220.849 381.192 220.725 382.73 220.774C387.511 220.774 390.604 222.85 390.604 227.256C390.604 231.272 387.52 233.912 382.512 233.912Z" fill="white"/>
<path d="M423.555 233.847C421.981 238.792 420.491 243.765 419.413 248.578H419.285C418.23 243.652 416.839 238.884 415.293 233.735L409.731 215.212H401.604L414.779 255.946H423.317L437.406 215.212H429.482L423.555 233.847Z" fill="white"/>
<path d="M500.781 237.874H516.145V231.8H500.781V221.334H517.056V215.208H493.333V255.947H517.957V249.821H500.783L500.781 237.874Z" fill="white"/>
<path d="M477.802 220.712C480.535 220.682 483.241 221.223 485.747 222.299L487.366 216.378C485.858 215.56 482.398 214.574 477.494 214.574C465.031 214.574 455.67 222.665 455.67 236.057C455.67 248.453 463.549 256.585 476.498 256.585C481.425 256.585 485.303 255.626 487.07 254.735L485.835 248.874C483.871 249.758 480.742 250.353 477.714 250.353C468.75 250.353 463.523 244.654 463.523 235.682C463.497 225.896 469.476 220.712 477.802 220.712Z" fill="white"/>
<path d="M322.494 232.236C317.051 230.155 314.697 228.684 314.697 225.563C314.697 223.166 316.703 220.654 321.427 220.654C324.252 220.637 327.045 221.297 329.566 222.587L331.356 216.59C329.231 215.509 325.987 214.571 321.577 214.571C312.74 214.571 307.156 219.6 307.156 226.269C307.156 232.103 311.458 235.717 318.205 238.105C323.362 239.977 325.432 241.79 325.432 244.866C325.432 248.201 322.77 250.429 318.019 250.429C314.572 250.402 311.187 249.506 308.177 247.827L306.525 253.988C308.751 255.355 313.223 256.588 317.544 256.588C328.068 256.588 333.004 250.894 333.004 244.34C332.978 238.492 329.575 234.93 322.494 232.236Z" fill="white"/>
<path d="M347.121 237.874H362.48V231.8H347.121V221.334H363.397V215.208H339.669V255.947H364.296V249.821H347.121V237.874Z" fill="white"/>
<path d="M538.686 232.236C533.243 230.155 530.884 228.684 530.884 225.563C530.884 223.166 532.89 220.654 537.623 220.654C540.443 220.637 543.237 221.297 545.762 222.587L547.548 216.59C545.421 215.509 542.183 214.571 537.771 214.571C528.931 214.571 523.342 219.6 523.342 226.269C523.342 232.103 527.652 235.717 534.396 238.105C539.547 239.977 541.62 241.79 541.62 244.866C541.62 248.201 538.963 250.429 534.221 250.429C530.77 250.402 527.382 249.506 524.366 247.827L522.718 253.988C524.943 255.355 529.422 256.588 533.731 256.588C544.255 256.588 549.192 250.894 549.192 244.34C549.17 238.492 545.764 234.93 538.686 232.236Z" fill="white"/>
<path d="M62.8151 253.744C72.2905 250.2 79.6106 243.581 84.3397 233.89L73.7009 214.741C68.9679 228.923 60.6909 236.49 49.3383 236.49C37.5143 236.49 29.7095 229.627 29.7095 214.032L29.4586 223.009C27.3788 242.047 38.7486 259.006 62.8151 253.744Z" fill="white"/>
<path d="M89.0728 192.062C89.0728 234.384 106.102 258.023 160.027 249.971C177.29 240.99 189.59 222.788 198.104 194.895L203.066 178.584C198.342 172.436 196.447 165.585 196.447 158.257C196.447 150.454 199.285 143.362 204.018 138.163C196.92 145.727 191.014 156.84 186.28 172.452L180.837 190.413C171.133 222.069 155.779 237.199 131.884 237.199C105.626 237.2 89.0728 218.998 89.0728 192.062Z" fill="white"/>
<path d="M160.023 249.967C106.111 258.004 89.0726 229.166 89.0726 192.06C89.0726 165.117 105.626 146.675 129.516 146.675C137.361 146.616 145.118 148.312 152.227 151.639C155.299 153.055 157.903 153.53 160.265 153.53C165.94 153.53 169.727 149.748 169.727 144.059C169.727 140.516 167.599 136.97 162.631 134.606C153.647 130.11 142.047 127.511 129.521 127.511C92.1537 127.511 66.3682 153.988 66.3682 192.519C66.3682 230.34 91.2022 256.579 131.179 256.579C142.055 256.581 151.512 254.457 160.023 249.967Z" fill="white"/>
<path d="M66.3682 192.522C66.3682 153.99 92.1498 127.517 129.517 127.517C142.051 127.517 153.641 130.126 162.627 134.611C167.594 136.976 169.723 140.522 169.723 144.066C169.723 149.742 165.937 153.538 160.265 153.538C157.893 153.538 155.293 153.064 152.217 151.646C145.113 148.325 137.358 146.627 129.512 146.68C96.6451 146.671 66.3682 167.466 66.3682 192.522Z" fill="white"/>
<path d="M207.565 135.083C205.438 137.118 204.238 139.94 204.252 142.885C204.252 150.685 211.585 162.27 228.619 174.085L248.01 187.559C262.201 197.487 267.877 206.941 267.877 221.128C267.877 231.29 263.857 240.039 257.234 246.18C259.6 244.053 261.02 241.219 261.02 237.436C261.02 229.165 252.734 216.158 234.999 203.873L217.26 191.581C202.36 181.185 196.446 171.489 196.446 158.253C196.446 150.45 199.284 143.359 204.017 138.159C205.138 137.062 206.328 136.038 207.565 135.083Z" fill="white"/>
<path d="M228.614 174.103C221.037 168.665 217.733 163.703 217.733 157.793C217.733 150.228 223.885 145.501 232.633 145.501C243.743 145.501 248.966 150.702 255.576 150.702C260.781 150.702 264.324 147.159 264.324 141.954C264.324 138.172 262.433 135.096 257.462 132.734C249.656 128.952 241.125 127.53 231.918 127.53C222.225 127.53 213.705 130.369 207.556 135.099C205.429 137.131 204.229 139.956 204.242 142.9C204.252 150.683 211.585 162.267 228.614 174.103Z" fill="white"/>
<path d="M7 151.628C7 137.448 16.2245 128.938 29.7099 128.938V104.825C29.7099 97.7302 24.9768 93.0057 18.3573 93.0057C11.7385 93.0057 7.00545 97.7341 7.00545 104.825V151.628H7Z" fill="white"/>
<path d="M47.2098 256.348C52.5257 256.366 57.8011 255.481 62.8154 253.735C38.9297 257.759 29.9483 241.325 29.7099 223.008V147.375H57.3772C63.7669 147.375 68.0246 143.592 68.0246 138.153C68.0246 132.717 63.7755 128.933 57.3772 128.933H29.7099C16.2245 128.933 7 137.445 7 151.625V216.631C7 242.639 21.9012 256.348 47.2098 256.348Z" fill="white"/>
</svg>
