<svg width="700" height="350" viewBox="0 0 700 350" fill="none" xmlns="http://www.w3.org/2000/svg">
<g clip-path="url(#clip0_8_123)">
<path d="M43.7958 204.976C50.9571 217.352 62.6727 217.352 69.8027 204.976L73.7914 198.066L37.9848 136.033H4L43.7958 204.976Z" fill="white"/>
<path d="M119.241 178.467C116.634 182.958 110.478 182.958 107.871 178.467L83.3392 136.033H49.3232L89.1815 204.976C96.3427 217.352 108.027 217.352 115.188 204.976L141.855 158.773L128.727 136H94.7415L119.241 178.467Z" fill="white"/>
<path d="M178.228 205.259H189.817L189.911 204.882C197.072 178.341 199.994 167.002 201.187 159.966C202.349 166.97 205.144 178.466 211.992 204.882L212.085 205.259H223.927L240.419 144.576H229.614L229.52 144.953C222.359 172.499 219.625 183.648 218.369 190.779C216.924 183.147 213.815 170.551 207.125 144.953L207.031 144.576H195.756L195.662 144.953C188.689 172.248 185.767 183.932 184.511 191.502C183.129 184.121 180.082 171.87 173.11 144.953L173.015 144.576H161.801L178.101 204.913L178.228 205.259Z" fill="white"/>
<path d="M258.761 206.107C267.525 206.107 275.817 201.332 279.147 194.203L271.137 190.119H270.98L270.823 190.403C269.849 192.413 266.3 197.093 258.856 197.093C252.104 197.093 246.953 192.79 246.167 186.539H280.623V186.068C280.843 177.556 278.518 170.583 273.933 165.903C269.975 161.82 264.478 159.685 258.103 159.685C251.726 159.685 246.041 162.072 241.926 166.375C237.842 170.646 235.581 176.551 235.581 182.958C235.582 196.59 245.13 206.107 258.761 206.107ZM258.102 168.51C264.478 168.51 269.347 172.593 269.848 178.278H246.166C246.888 172.593 251.82 168.51 258.102 168.51Z" fill="white"/>
<path d="M302.421 206.107C313.696 206.107 320.702 200.86 320.702 192.412C320.702 182.392 311.593 180.036 304.274 178.12C299.217 176.801 294.851 175.671 294.851 172.467C294.851 169.892 297.584 168.069 301.478 168.069C305.75 168.069 308.702 170.331 309.205 173.943L309.519 175.765H309.707L318.691 174.068C318.691 165.65 311.246 159.745 301.572 159.745C291.897 159.745 284.674 165.242 284.674 173.094C284.674 182.612 293.5 184.967 300.597 186.851C305.748 188.234 310.177 189.427 310.177 192.757C310.177 195.677 307.318 197.468 302.733 197.468C297.205 197.468 293.499 194.893 293.028 190.746L292.934 190.055L283.416 191.846C283.481 201.175 293.783 206.107 302.421 206.107Z" fill="white"/>
<path d="M328.742 196.997C328.742 202.023 331.915 206.106 337.191 206.106C343.724 206.106 345.64 205.258 345.64 205.258V196.808C345.64 196.808 343.693 197.123 341.306 197.123C339.767 197.123 338.667 196.181 338.667 194.798V169.168H345.577L345.484 160.625H338.699V147.936L328.774 150.417V160.625H323.591V169.169H328.773V196.997L328.742 196.997Z" fill="white"/>
<path d="M406.574 166.28V160.626H397.842V205.259H408.332L408.238 177.964C408.365 175.231 409.306 173.127 410.97 171.713C413.168 169.86 416.624 169.231 421.179 169.86L421.714 169.923L421.807 160.625L421.367 160.563C415.118 159.684 409.432 161.6 406.574 166.28Z" fill="white"/>
<path d="M450.358 159.715C444.046 159.715 438.14 162.227 435.187 167.002V160.626H426.11V205.259H436.695V181.293C436.695 173.598 440.715 169.012 447.468 169.012C452.086 169.012 457.581 171.023 457.581 180.634V205.258H468.166V179.189C468.168 164.834 458.934 159.715 450.358 159.715Z" fill="white"/>
<path d="M525.05 180.131C525.05 190.434 520.151 196.119 511.294 196.119C502.436 196.119 497.63 190.434 497.63 180.131V144.576H486.951V179.88C486.951 196.307 496.059 206.107 511.294 206.107C526.527 206.107 535.636 196.307 535.636 179.88V144.576H525.052L525.05 180.131Z" fill="white"/>
<path d="M566.197 159.715C559.885 159.715 553.947 162.227 551.026 167.002V160.626H541.917V205.259H552.502V181.293C552.502 173.598 556.523 169.012 563.275 169.012C567.893 169.012 573.389 171.023 573.389 180.634V205.258H583.973V179.189C584.006 164.834 574.803 159.715 566.197 159.715Z" fill="white"/>
<path d="M601.061 160.626H590.571V205.259H601.061V160.626Z" fill="white"/>
<path d="M595.848 144.167C592.424 144.167 589.722 146.806 589.722 150.199C589.722 153.591 592.454 156.135 595.848 156.135C599.24 156.135 601.878 153.466 601.878 150.199C601.878 146.869 599.177 144.167 595.848 144.167Z" fill="white"/>
<path d="M629.487 159.715C622.954 159.715 616.986 162.07 612.652 166.311C608.349 170.583 605.962 176.456 605.962 182.896C605.962 196.338 615.857 206.107 629.487 206.107C643.119 206.107 653.075 196.338 653.075 182.896C653.075 176.456 650.688 170.551 646.385 166.311C642.051 162.039 636.051 159.715 629.487 159.715ZM629.487 196.464C621.917 196.464 616.232 190.623 616.232 182.896C616.232 175.169 621.917 169.327 629.487 169.327C637.057 169.327 642.899 175.169 642.899 182.896C642.899 190.622 637.119 196.464 629.487 196.464Z" fill="white"/>
<path d="M682.223 159.715C675.911 159.715 670.005 162.227 667.052 167.002V160.626H657.944V205.259H668.528V181.293C668.528 173.598 672.549 169.012 679.302 169.012C683.92 169.012 689.416 171.023 689.416 180.634V205.258H700V179.189C700.032 164.834 690.83 159.715 682.223 159.715Z" fill="white"/>
<path d="M370.799 159.715C364.486 159.715 358.738 162.102 354.623 166.405C350.538 170.677 348.278 176.582 348.278 182.989C348.278 196.589 357.795 206.107 371.458 206.107C380.221 206.107 388.514 201.332 391.843 194.203L383.834 190.119H383.677L383.52 190.403C382.545 192.412 378.998 197.093 371.553 197.093C364.8 197.093 359.65 192.79 358.863 186.539H393.319V186.068C393.539 177.555 391.215 170.583 386.629 165.903C382.672 161.851 377.175 159.715 370.799 159.715ZM358.832 178.278C359.555 172.593 364.486 168.509 370.799 168.509C377.112 168.509 382.044 172.593 382.545 178.278H358.832Z" fill="white"/>
</g>
<defs>
<clipPath id="clip0_8_123">
<rect width="700" height="350" fill="white"/>
</clipPath>
</defs>
</svg>
